<?xml version="1.0" standalone="no"?>
<!DOCTYPE svg PUBLIC "-//W3C//DTD SVG 20010904//EN"
 "http://www.w3.org/TR/2001/REC-SVG-20010904/DTD/svg10.dtd">
<svg version="1.0" xmlns="http://www.w3.org/2000/svg"
 width="130" height="34" viewBox="0 0 4000.000000 4000.000000"
 preserveAspectRatio="xMidYMid meet">

<g transform="translate(0.000000,4000.000000) scale(0.100000,-0.100000)"
fill="#000000" stroke="none">
<path d="M16080 34533 c-744 -50 -1362 -176 -2003 -409 -1509 -548 -2792
-1609 -3621 -2994 -384 -641 -673 -1379 -830 -2115 -270 -1269 -184 -2610 244
-3804 l40 -114 -45 -51 c-679 -765 -1037 -1511 -1152 -2401 -23 -178 -26 -752
-5 -940 37 -329 113 -585 256 -870 158 -313 335 -555 600 -821 643 -642 1545
-1067 2676 -1258 508 -86 843 -110 1523 -111 530 0 538 0 542 -20 33 -144 50
-225 90 -423 26 -129 45 -235 43 -236 -2 0 -41 -27 -88 -58 -327 -218 -511
-605 -471 -989 48 -454 349 -814 782 -935 97 -27 97 -27 103 -63 15 -94 15
-95 -81 -136 -264 -114 -604 -291 -883 -463 -1002 -615 -1714 -1384 -2054
-2219 -227 -558 -287 -1061 -273 -2313 6 -507 15 -827 33 -1111 l6 -106 -94
-30 c-697 -227 -1241 -666 -1442 -1165 -138 -345 -136 -777 7 -1073 256 -528
973 -842 2172 -951 243 -22 1008 -30 1313 -15 788 41 1530 148 1991 287 230
70 330 127 489 279 307 293 505 708 646 1355 73 338 112 605 191 1315 92 827
124 1023 230 1390 124 430 236 665 422 886 245 291 648 487 1143 553 349 48
1111 71 1501 47 854 -53 1526 -236 2000 -546 251 -164 609 -530 862 -882 337
-469 568 -939 1202 -2438 266 -629 449 -1001 659 -1340 177 -284 224 -333 411
-425 244 -121 605 -216 1075 -284 840 -122 1924 -136 2750 -35 931 112 1542
362 1784 728 105 158 142 327 133 601 -8 232 -50 397 -154 605 -280 557 -956
1091 -1853 1463 l-165 69 -27 84 c-15 46 -79 253 -143 459 -409 1318 -961
2856 -1348 3756 l-35 80 132 80 c884 534 1432 1083 1555 1558 43 165 55 287
55 556 0 304 -25 580 -85 935 -11 66 -29 188 -40 270 -38 302 -106 618 -205
952 -60 205 -138 432 -162 474 -11 19 -54 135 -95 259 -276 834 -635 1670
-1000 2330 -89 161 -271 465 -295 493 -21 24 -18 26 163 132 518 304 1120 706
1580 1054 1447 1098 2254 2176 2446 3266 26 152 36 432 20 570 -43 361 -172
650 -396 884 -254 266 -571 420 -1032 502 -168 30 -539 37 -750 15 -1044 -111
-2295 -654 -4005 -1739 -421 -267 -882 -575 -1601 -1070 -175 -120 -320 -217
-322 -215 -2 2 14 68 34 148 21 80 55 226 76 326 l38 180 68 37 c214 118 405
296 570 532 38 55 102 136 141 180 399 448 529 1213 338 1991 -142 577 -452
1116 -829 1438 -52 45 -149 131 -215 192 -235 214 -392 324 -611 430 -122 60
-353 144 -394 144 -12 0 -50 49 -118 153 -725 1100 -1777 1995 -2976 2531
-761 340 -1572 539 -2432 596 -134 9 -691 11 -805 3z m980 -377 c1089 -109
2075 -446 2968 -1016 685 -438 1315 -1034 1800 -1705 l101 -140 -102 -16
c-313 -50 -574 -178 -817 -398 -45 -40 -82 -72 -84 -70 -2 2 -48 58 -103 124
-966 1163 -2447 2017 -4042 2329 -550 108 -928 141 -1524 133 -382 -5 -512
-13 -803 -51 -671 -88 -1413 -310 -2094 -627 -99 -46 -103 -47 -70 -18 68 60
351 269 482 357 989 662 2110 1039 3313 1116 155 10 818 -3 975 -18z m-1380
-1116 c1007 -52 1951 -301 2840 -751 817 -413 1493 -946 2065 -1629 53 -63
101 -125 107 -136 8 -17 2 -35 -32 -98 -24 -43 -62 -120 -85 -172 l-43 -95
-86 115 c-161 215 -289 360 -515 587 -308 308 -566 522 -902 746 -916 613
-1956 978 -3094 1085 -189 18 -913 18 -1095 0 -585 -57 -1064 -169 -1629 -379
-1162 -432 -2050 -1102 -2649 -1999 -125 -188 -187 -293 -293 -499 -54 -104
-99 -187 -99 -184 0 4 24 73 54 155 192 532 434 1010 747 1474 164 243 191
274 325 382 597 478 1299 842 2144 1110 718 228 1486 326 2240 288z m-215
-1481 c187 -19 327 -71 258 -96 -91 -32 -414 -177 -608 -273 -728 -358 -1336
-754 -1900 -1234 -145 -123 -546 -518 -651 -641 -345 -401 -618 -829 -762
-1191 -205 -515 -248 -1000 -152 -1689 16 -110 17 -141 8 -144 -76 -25 -660
-336 -768 -408 -19 -13 -40 -23 -46 -23 -27 0 -91 300 -128 600 -36 290 -46
418 -53 720 -25 1097 236 2008 766 2677 221 280 569 587 961 847 414 276 803
465 1275 620 612 200 1278 287 1800 235z m6855 -659 l95 -23 -85 -27 c-117
-37 -186 -70 -285 -134 -359 -234 -598 -688 -656 -1245 -15 -146 -6 -519 16
-661 33 -213 100 -475 171 -670 58 -157 197 -428 296 -577 118 -176 195 -271
328 -403 275 -274 583 -440 909 -489 l114 -17 -69 -31 c-159 -72 -282 -98
-469 -97 -208 0 -372 40 -582 139 -432 205 -826 624 -1079 1150 -153 317 -245
623 -296 985 -18 128 -18 574 0 695 68 451 219 801 457 1052 113 121 224 204
360 269 189 91 298 114 520 110 126 -2 180 -8 255 -26z m565 -395 c646 -188
1189 -1001 1286 -1924 15 -144 7 -466 -15 -586 -92 -506 -340 -849 -686 -944
-330 -92 -706 51 -1040 395 -123 127 -201 227 -296 380 -197 318 -331 704
-380 1094 -18 149 -18 455 1 589 80 563 359 935 766 1021 80 17 264 4 364 -25z
m-4082 -220 c441 -77 809 -451 908 -923 30 -141 23 -369 -15 -495 -91 -305
-300 -508 -595 -579 -111 -26 -328 -21 -431 10 -309 93 -557 301 -708 592 -92
177 -132 337 -132 532 0 171 28 295 97 433 163 328 504 495 876 430z m10868
-1945 c306 -30 577 -117 792 -256 139 -90 298 -267 372 -414 140 -277 170
-618 89 -1002 -93 -443 -342 -950 -689 -1407 -237 -312 -460 -551 -890 -951
-70 -65 -296 -256 -445 -376 -240 -193 -722 -547 -744 -547 -16 0 -175 113
-296 212 -141 114 -440 415 -575 579 -305 371 -559 771 -814 1282 -248 499
-414 923 -597 1521 -13 43 1066 628 1556 844 653 287 1226 460 1675 504 61 6
124 13 140 15 69 7 330 5 426 -4z m-9739 -308 c200 -96 315 -313 273 -513 -34
-167 -160 -269 -332 -269 -144 0 -281 78 -367 209 -62 94 -81 157 -81 266 0
75 5 99 26 145 66 141 167 203 324 197 77 -3 100 -8 157 -35z m-4112 -1172
c574 -40 1029 -172 1375 -401 135 -89 344 -293 424 -414 255 -387 312 -853
160 -1319 -211 -646 -779 -1187 -1619 -1540 -139 -59 -309 -118 -680 -236
-532 -170 -1111 -387 -1560 -585 -208 -92 -548 -262 -679 -339 -105 -63 -100
-63 -285 -41 -340 40 -694 159 -984 332 -321 191 -639 501 -865 843 -97 148
-245 438 -302 594 -201 547 -216 1130 -44 1593 21 54 24 57 148 138 500 327
1187 649 1901 890 839 283 1618 442 2395 488 127 8 484 6 615 -3z m9825 -165
c306 -991 799 -1958 1338 -2630 246 -305 556 -612 820 -809 42 -32 77 -60 77
-61 0 -6 -312 -206 -525 -337 -785 -483 -1675 -954 -2600 -1378 -153 -70 -528
-233 -597 -259 l-26 -10 40 -123 c119 -369 308 -904 500 -1423 71 -192 132
-357 134 -365 5 -16 -50 -43 -286 -142 -515 -217 -1279 -418 -2165 -568 -253
-43 -779 -120 -819 -120 -10 0 -15 24 -20 93 -24 331 -146 596 -368 802 -195
180 -422 281 -688 306 -104 10 -163 7 -625 -30 -632 -51 -1697 -135 -3120
-246 -1181 -92 -1183 -92 -1356 -164 -291 -121 -526 -372 -639 -680 -24 -64
-29 -72 -34 -51 -3 14 -29 129 -56 255 -52 236 -164 688 -200 807 -23 76 -65
120 -130 138 -74 20 -170 -27 -200 -99 -18 -45 -9 -104 58 -361 34 -129 59
-237 56 -240 -12 -11 -981 -5 -1139 8 -601 48 -1080 133 -1535 270 -1085 328
-1893 938 -2275 1717 -114 233 -173 422 -200 645 -53 436 -42 829 35 1224 127
648 427 1251 904 1815 84 100 298 328 341 364 l31 25 -13 -81 c-7 -45 -15
-158 -19 -252 -27 -680 221 -1397 688 -1988 103 -130 344 -371 473 -473 349
-275 744 -464 1150 -549 128 -27 121 -20 73 -76 -121 -141 -158 -225 -158
-358 0 -89 21 -143 69 -184 78 -66 185 -53 248 30 25 32 28 45 29 114 1 84 17
120 83 183 l28 27 151 -81 c376 -202 819 -386 1232 -511 1100 -335 2240 -397
3365 -184 905 172 1773 526 2545 1039 1194 794 2090 1896 2631 3235 32 80 64
148 71 152 7 4 276 188 598 410 521 358 1162 790 1415 954 314 204 560 354
565 348 4 -5 24 -62 45 -128z m-3892 -255 c128 -77 117 -50 96 -235 -187
-1609 -1026 -3041 -2373 -4049 -659 -494 -1427 -872 -2236 -1101 -141 -40
-374 -97 -468 -116 -86 -16 -703 -6 -917 15 -309 31 -635 85 -923 152 -62 14
-112 27 -110 28 2 1 102 -2 223 -7 371 -17 838 9 1255 69 2094 302 3881 1576
4720 3367 276 588 458 1293 496 1928 l7 107 74 -54 c40 -30 110 -77 156 -104z
m760 -271 c101 -12 374 -8 410 6 25 10 23 -11 -29 -217 -162 -645 -402 -1228
-745 -1805 -575 -967 -1425 -1800 -2409 -2360 -205 -117 -570 -301 -570 -288
0 2 17 14 38 26 84 51 345 228 452 307 257 190 461 364 689 587 366 358 647
697 903 1090 493 756 813 1601 933 2467 14 101 28 197 30 214 l5 31 96 -23
c52 -13 141 -28 197 -35z m4349 -4196 c244 -391 513 -916 730 -1423 139 -325
428 -1083 428 -1124 0 -8 -17 -16 -46 -20 -41 -5 -248 -89 -1309 -529 -166
-68 -321 -135 -344 -147 -56 -28 -132 -99 -171 -159 -33 -52 -69 -149 -71
-190 -1 -14 -7 18 -14 72 -15 107 -61 266 -105 364 -94 207 -261 385 -452 480
-116 58 -170 74 -273 81 l-89 7 -32 81 c-48 123 -269 727 -336 919 -128 366
-218 628 -216 630 2 0 48 21 103 44 541 235 1541 730 1995 989 58 33 107 60
110 61 3 1 44 -61 92 -136z m-6353 -2654 c152 -24 317 -115 438 -242 130 -137
202 -298 222 -496 18 -169 18 -165 -35 -186 -69 -26 -186 -108 -243 -171 -63
-69 -153 -218 -192 -318 -55 -142 -73 -237 -72 -391 0 -199 35 -338 132 -535
133 -266 293 -417 508 -476 l61 -17 6 -51 c21 -187 28 -369 17 -441 -39 -265
-200 -494 -430 -614 -112 -58 -201 -79 -401 -96 -96 -8 -194 -16 -217 -19 -24
-2 -43 -1 -43 2 0 3 18 29 40 57 96 125 177 299 210 454 35 162 34 231 -10
771 -22 278 -67 849 -100 1270 -33 421 -65 794 -71 830 -38 214 -144 426 -297
591 l-64 69 39 1 c21 0 106 7 188 14 153 13 201 12 314 -6z m-1115 -84 c231
-60 434 -230 537 -448 50 -107 66 -195 88 -487 12 -151 46 -599 77 -995 30
-396 64 -830 74 -965 24 -294 25 -378 5 -475 -51 -246 -227 -469 -453 -573
-133 -62 -174 -67 -1017 -132 -434 -33 -861 -66 -947 -73 l-157 -12 -6 40 c-3
22 -19 168 -35 325 -109 1073 -106 1052 -171 1155 -70 113 -97 132 -427 305
-272 143 -316 176 -340 258 -7 22 -35 316 -62 653 -28 338 -61 749 -74 914
-14 165 -22 303 -18 306 4 3 376 34 827 69 451 34 1059 82 1350 105 602 48
668 51 749 30z m8724 -179 c51 -27 70 -61 125 -231 131 -401 219 -772 262
-1104 9 -71 13 -181 11 -331 -4 -256 -16 -325 -83 -453 -71 -134 -254 -302
-422 -387 -60 -30 -67 -31 -105 -20 -62 19 -193 86 -266 138 -93 66 -264 241
-343 352 -159 225 -350 684 -403 968 -23 128 -27 137 -52 140 -41 6 -52 -14
-52 -93 0 -142 60 -423 147 -689 118 -361 252 -594 467 -810 l109 -109 -79 6
c-96 8 -212 39 -278 75 -27 15 -82 57 -121 94 -221 206 -414 646 -535 1214
-43 206 -80 431 -80 492 0 47 4 57 38 91 33 35 110 69 732 326 382 158 724
300 760 315 73 32 128 37 168 16z m-2831 -36 c243 -85 422 -359 440 -671 7
-118 -5 -222 -43 -374 -51 -206 -105 -268 -314 -359 -792 -347 -1800 -603
-2810 -715 -409 -46 -864 -75 -1075 -69 -115 3 -136 6 -185 29 -88 41 -161
129 -239 286 -64 130 -83 202 -88 343 -6 152 7 214 71 345 51 104 88 153 149
201 64 50 112 63 342 90 1385 165 2570 453 3339 812 78 36 161 73 186 83 61
24 156 24 227 -1z m-9077 -37 c0 -81 151 -1854 161 -1888 27 -95 101 -203 176
-257 26 -20 163 -96 303 -169 276 -145 318 -177 344 -257 8 -26 28 -189 45
-362 17 -173 47 -468 65 -655 19 -187 34 -340 33 -341 -1 0 -329 -26 -728 -57
-832 -64 -782 -65 -964 23 -177 86 -289 198 -375 375 -62 128 -75 193 -100
505 -185 2310 -187 2342 -144 2489 78 270 299 488 569 562 74 20 406 55 558
58 56 1 57 0 57 -26z m9966 -1286 c155 -695 400 -1188 704 -1419 377 -286
1014 -252 1479 80 52 37 137 110 189 162 l95 95 -7 -150 c-11 -258 -42 -407
-113 -550 -90 -179 -211 -329 -450 -556 -85 -81 -261 -221 -433 -343 -145
-104 -524 -346 -541 -346 -5 0 -15 15 -23 33 -7 17 -82 187 -166 377 -84 190
-175 397 -202 460 -116 269 -293 682 -328 765 -21 50 -86 205 -145 345 -59
140 -165 397 -237 570 l-130 315 18 30 c97 164 153 344 176 561 l12 115 33
-191 c18 -105 49 -264 69 -353z m-11486 -29 c0 -11 13 -193 29 -402 60 -775
72 -948 67 -953 -3 -3 -34 3 -68 15 -241 79 -430 292 -483 542 -66 314 82 633
366 790 65 36 89 38 89 8z m10990 -578 c341 -828 639 -1526 1032 -2415 219
-494 324 -744 484 -1146 119 -301 358 -935 369 -980 5 -19 -2 -44 -25 -90
-137 -271 -513 -562 -1045 -807 -719 -331 -1696 -592 -2500 -667 -191 -18
-576 -30 -590 -18 -6 4 -28 35 -49 68 -306 473 -734 930 -1086 1161 -641 419
-1644 636 -2835 610 -988 -20 -1475 -126 -1906 -414 -186 -124 -315 -249 -451
-437 -67 -92 -184 -292 -194 -332 -4 -13 -9 -23 -13 -23 -3 1 -28 33 -56 72
-141 200 -405 426 -714 611 -785 470 -2134 863 -3666 1067 -88 12 -162 23
-164 25 -6 7 182 285 264 390 434 556 1061 1062 1822 1474 139 75 388 198 476
234 l35 15 27 -86 c79 -254 243 -471 469 -620 121 -80 218 -123 355 -159 190
-49 123 -53 2673 146 1274 100 2340 186 2370 192 449 92 792 414 907 853 36
136 43 259 26 466 -8 102 -15 190 -15 196 0 7 51 13 148 18 853 40 1810 194
2587 417 402 116 855 277 1105 393 30 14 57 22 61 18 3 -4 48 -108 99 -232z
m-13155 -4055 c228 -32 587 -94 819 -140 1696 -338 2852 -850 3255 -1443 46
-69 121 -217 121 -241 0 -9 -23 -95 -50 -191 -95 -332 -138 -588 -220 -1330
-52 -470 -70 -620 -96 -800 -105 -730 -243 -1186 -460 -1517 -70 -106 -244
-284 -327 -332 -151 -89 -493 -172 -1009 -246 -1080 -154 -2185 -162 -2968
-19 -320 58 -586 141 -805 249 -293 145 -458 311 -528 530 -47 147 -48 396 -2
570 31 121 114 294 187 390 108 143 295 308 479 422 163 102 446 228 655 292
232 71 393 86 914 85 386 0 438 -3 745 -32 416 -40 642 -60 727 -64 l66 -4
-29 18 c-63 38 -253 130 -349 168 -492 196 -1146 300 -1638 261 -85 -7 -155
-11 -158 -9 -8 9 -23 412 -35 924 -18 761 4 1391 61 1742 39 242 143 583 225
742 l14 27 113 -14 c62 -7 194 -24 293 -38z m15414 -1560 c246 -738 461 -1410
461 -1444 0 -7 -25 -11 -72 -11 -401 0 -844 -102 -1180 -271 -378 -190 -689
-492 -838 -812 -65 -140 -63 -141 61 -23 198 188 397 328 652 457 400 203 814
292 1353 291 l241 0 129 -52 c390 -157 816 -394 1118 -623 156 -118 419 -380
508 -507 204 -289 286 -608 229 -886 -24 -116 -49 -163 -130 -247 -83 -86
-166 -142 -323 -216 -675 -321 -2119 -444 -3473 -296 -586 65 -1078 171 -1299
282 -104 52 -120 68 -199 188 -229 352 -437 762 -694 1370 -462 1093 -693
1604 -874 1933 l-29 52 78 0 c245 0 743 64 1172 151 1285 261 2368 747 2805
1259 67 79 69 80 81 57 7 -12 107 -306 223 -652z"/>
<path d="M18925 18140 c-44 -4 -174 -16 -289 -25 -115 -9 -216 -20 -225 -25
-9 -5 -43 -19 -76 -31 -430 -165 -629 -789 -414 -1304 138 -332 445 -551 744
-532 44 3 190 15 325 27 254 22 353 41 438 84 166 84 315 263 387 466 116 328
68 713 -126 1002 -57 84 -181 204 -260 251 -137 80 -300 109 -504 87z m-244
-306 c30 -9 74 -27 99 -42 103 -59 215 -195 260 -314 27 -74 60 -205 60 -242
0 -47 -83 -181 -159 -256 -224 -223 -540 -221 -767 4 l-72 71 -6 72 c-41 440
258 802 585 707z"/>
<text fill="#fffff" font-family="Optien" font-size="26" font-weight="700">
            <tspan x="30" y="25">Socialite</tspan>
        </text>
</g>
</svg>
